PathFileType	4	(X/Y/Z)	60_2_63_p1_0-367.trc
DataRate	CameraRate	NumFrames	NumMarkers	Units	OrigDataRate	OrigDataStartFrame	OrigNumFrames
60.0	60.0	4	27	m	60.0	0	368
Frame#	Time	RHip			RKnee			RAnkle			RBigToe			RSmallToe			RHeel			LHip			LKnee			LAnkle			LBigToe			LSmallToe			LHeel			Neck			Head			Nose			RShoulder			RElbow			RWrist			RThumb			RIndex			RPinky			LShoulder			LElbow			LWrist			LThumb			LIndex			LPinky			
		X1	Y1	Z1	X2	Y2	Z2	X3	Y3	Z3	X4	Y4	Z4	X5	Y5	Z5	X6	Y6	Z6	X7	Y7	Z7	X8	Y8	Z8	X9	Y9	Z9	X10	Y10	Z10	X11	Y11	Z11	X12	Y12	Z12	X13	Y13	Z13	X14	Y14	Z14	X15	Y15	Z15	X16	Y16	Z16	X17	Y17	Z17	X18	Y18	Z18	X19	Y19	Z19	X20	Y20	Z20	X21	Y21	Z21	X22	Y22	Z22	X23	Y23	Z23	X24	Y24	Z24	X25	Y25	Z25	X26	Y26	Z26	X27	Y27	Z27	
0	0.0	0.32593661591244183	0.45849421408671215	-0.20685254668111747	0.32076292281580526	0.6314245707463592	0.18299331962573717	0.2979544906524989	0.8542471735334605	0.5664550316090268	0.29490786225719734	0.6559748431159449	0.6962209209964367	0.3659371123994603	0.7192659893463774	0.6815225930105154	0.2787611156738663	0.9162038616715178	0.5928670541323247	0.1110787747344204	0.49313400930403023	-0.2043278684993422	0.1261652207911531	0.641266094500678	0.18316550819071906	0.13406722924289077	0.8197592454443234	0.5674773677887608	0.12623321130345652	0.6388927940058614	0.6823815374563296	0.07057862386506254	0.6783307123823461	0.6656870706990488	0.14612969234093956	0.8877963148958162	0.6050471619555015	0.23690680433590183	0.2709565040194663	-0.7395841285797231	0.2461058684465762	0.1482910970741117	-0.9601459309019234	0.2307461490386258	0.11788760740744579	-0.8077890089761244	0.3815234577410681	0.2884807407350217	-0.6539002971651748	0.40633398988877584	0.3402902544272556	-0.3934020613784157	0.2938685468952858	0.26801017242167285	-0.17298464797322297	0.18885006903530657	0.2668046665691635	-0.08557291102527122	0.1925893862573623	0.28425620681597974	-0.07052755216118992	0.2163131941269739	0.3282848297686054	-0.05911706206201425	0.07866983197903521	0.30489986920894285	-0.6682924962392695	0.025386056458543315	0.3844102599679608	-0.3963818457327173	0.13956054787980363	0.2992198841078442	-0.1839803191255733	0.20404489900356645	0.2774561789868644	-0.09958601400045201	0.20542595407810846	0.2841220500773379	-0.07417069472162807	0.19852070730456334	0.30649936121725463	-0.07342755607070577
1	0.016666666666666666	0.3297988475485565	0.4712202687168632	-0.2078245532158136	0.3207380123547734	0.6311185717516604	0.18312818615834847	0.2979966743861492	0.8539800197916081	0.5664448336926868	0.29028791838833784	0.6392352356745921	0.6883349531369111	0.3612681954291103	0.7029486428068383	0.6741733976866704	0.27982427629325796	0.9192544280008726	0.5975713121422622	0.11106924311581876	0.4928317200837986	-0.20436083832593585	0.12654484061046695	0.6438215335101387	0.18801288428885551	0.1339601822304093	0.8194316930334413	0.5673566757859873	0.1292808614844398	0.6543031982124804	0.6858889172537517	0.0704984663411548	0.6785422326935635	0.6657974921017638	0.14601177934348944	0.8873139349250193	0.6050326289535105	0.23284246368681505	0.28378679837068826	-0.7426484786205113	0.24613144931567166	0.14826850680408318	-0.9601297587773875	0.23068264623365506	0.11816864793496304	-0.8076980288315214	0.3814307985396298	0.2886216125283542	-0.6539236123211736	0.40607152114820155	0.34057019432529567	-0.39332691752393834	0.2943631728128184	0.26984408182578334	-0.16989226232775484	0.18881424774418115	0.26691185120276695	-0.08558362296474763	0.19258157786290866	0.2844972149549982	-0.07039533206257488	0.21701034939302216	0.33037797830316346	-0.055201383415079526	0.07873685133180873	0.30491738143596736	-0.6683301111739598	0.02561069819868974	0.3837358648392563	-0.3994608574661997	0.13947666432963518	0.29943707077204745	-0.1840080268234663	0.2037815829057917	0.27688607679066424	-0.10252497325156454	0.2053283719256216	0.28435071331153794	-0.07424630221077651	0.19845085940181148	0.30635519413292706	-0.07311427597797698
2	0.03333333333333333	0.3298077271742092	0.47125458447054314	-0.2077497074888038	0.3200505345249445	0.63265773022583	0.18743651329068187	0.29799663568021695	0.8538045691846501	0.5665296833642232	0.2912787271280457	0.6378743888557602	0.6840469795190509	0.3622368493653026	0.7059085144994433	0.6783737910718106	0.28426485217473446	0.9002987087339296	0.5944425138263386	0.11102960140376288	0.49275945241353253	-0.20423348057086546	0.12546907102211544	0.6451386963142561	0.1924519096569208	0.1339802216887718	0.8193074165599691	0.5673143273700512	0.1292427370568687	0.6544511038591375	0.6858447059338805	0.07042331826260821	0.6784629246732296	0.6657845882447713	0.145915784261742	0.8868128961321957	0.6049249083328095	0.236919197934353	0.2710882231138278	-0.7395977598333515	0.24609369596304415	0.1482645810002313	-0.9601244334602845	0.23051695929319171	0.11642339100742381	-0.8106871839427043	0.38521535077778424	0.29979748384809785	-0.6561900403551094	0.40606946549936135	0.34055250096235157	-0.3932899869264286	0.29434784697251576	0.26986138761640366	-0.1698741220949554	0.18884103838806107	0.26690845139028546	-0.08552124652547385	0.19254443637107777	0.2844553400629782	-0.07037519556381035	0.21693961180994634	0.33037081995652035	-0.05523809943110095	0.07874768093889213	0.3050296098354253	-0.6683349832765867	0.03066666307977912	0.3707327083327413	-0.397935873724695	0.13943069919999226	0.29949463727629	-0.18399455561919645	0.20367799619860807	0.27690237168879756	-0.10243602738383285	0.20468817454400776	0.28513209329442707	-0.07036461837068038	0.1956087614202837	0.29553474410837416	-0.07304974032180375
3	0.05	0.32983783507189707	0.4712748525602088	-0.20776305433010464	0.3208667897340316	0.6310855685717485	0.18311933617894605	0.29797687826000374	0.8538693636577264	0.5666080561002006	0.29116819207278005	0.6383128567584033	0.6842455004666177	0.35721329572580596	0.6898353065294129	0.6716637124180631	0.2797239554253598	0.9191972046697013	0.5979812717269113	0.11103875768772405	0.4928119040558896	-0.20427004978354324	0.12545058792762886	0.6447577373729411	0.1924575035719104	0.13395177656091153	0.8192753548683104	0.5673927266366446	0.1261317842573292	0.6391550903174386	0.6823722146654972	0.07004986881950707	0.678629830692762	0.6618511178852722	0.14586312357204112	0.8867993069884378	0.6051932422875722	0.2369166996941232	0.2710153052564993	-0.7396060798492538	0.24608998736311766	0.14830380008715238	-0.9601470767496257	0.23058345096737695	0.11776875220347599	-0.8077033283580045	0.38143346646390636	0.28868387455200717	-0.6538537462436583	0.4030103114948287	0.35400914273351053	-0.394882577598786	0.29436818353905986	0.26984399713185814	-0.16992046140525208	0.18568408787810534	0.2551585244405805	-0.08529276998990083	0.19251162356845894	0.28449596163646407	-0.07042278461006758	0.21644176593396552	0.3283181173932466	-0.05921479339978888	0.07872598764412574	0.3050027148321183	-0.6683285138561366	0.030311097998889827	0.37123514410604896	-0.39486352132651564	0.1394464909812863	0.29947324529130614	-0.18397968879008975	0.20383433511398613	0.27752953620613735	-0.09947619186436234	0.20468652637040943	0.2848415433516687	-0.07038207251959432	0.19562156357148966	0.295453532788421	-0.07309304030619551
